Video
ID                             : 1
Format                         : AVC
Format/Info                    : Advanced Video Codec
Format profile                 : High@L3.0
Format settings, CABAC         : Yes
Format settings, ReFrames      : 4 frames
Codec ID                       : avc1
Codec ID/Info                  : Advanced Video Coding
Duration                       : 51mn 0s
Bit rate                       : 698 Kbps
Width                          : 704 pixels
Height                         : 448 pixels
Display aspect ratio           : 1.571
Frame rate mode                : Constant
Frame rate                     : 25.000 fps
Color space                    : YUV
Chroma subsampling             : 4:2:0
Bit depth                      : 8 bits
Scan type                      : Progressive
Bits/(Pixel*Frame)             : 0.089
Stream size                    : 255 MiB (84%)
Writing library                : x264 core 130

Audio
ID                             : 2
Format                         : AAC
Format/Info                    : Advanced Audio Codec
Format profile                 : LC
Codec ID                       : 40
Duration                       : 51mn 0s
Duration_LastFrame             : -1ms
Bit rate mode                  : Variable
Bit rate                       : 128 Kbps
Maximum bit rate               : 800 Kbps
Channel(s)                     : 2 channels
Channel positions              : Front: L R
Sampling rate                  : 44.1 KHz
Compression mode               : Lossy
Delay relative to video        : 80ms
Stream size                    : 46.7 MiB (15%)

Screens : 
 
http://i.imgur.com/aYpCGkJ.jpg
 
http://i.imgur.com/NLRlPH4.jpg